<?xml version="1.0" encoding="UTF-8" standalone="no"?>
<!-- Created with Inkscape (http://www.inkscape.org/) -->

<svg
   width="106.23317mm"
   height="36.98349mm"
   viewBox="0 0 106.23317 36.98349"
   version="1.1"
   id="svg1"
   xmlns:inkscape="http://www.inkscape.org/namespaces/inkscape"
   xmlns:sodipodi="http://sodipodi.sourceforge.net/DTD/sodipodi-0.dtd"
   xmlns="http://www.w3.org/2000/svg"
   xmlns:svg="http://www.w3.org/2000/svg">
  <sodipodi:namedview
     id="namedview1"
     pagecolor="#ffffff"
     bordercolor="#000000"
     borderopacity="0.25"
     inkscape:showpageshadow="2"
     inkscape:pageopacity="0.0"
     inkscape:pagecheckerboard="0"
     inkscape:deskcolor="#d1d1d1"
     inkscape:document-units="mm" />
  <defs
     id="defs1" />
  <g
     inkscape:label="Шар 1"
     inkscape:groupmode="layer"
     id="layer1"
     transform="translate(-49.24841,-113.7808)">
    <rect
       style="fill:#ffffff;stroke-width:1.321;paint-order:fill markers stroke"
       id="rect3"
       width="106.23316"
       height="36.983482"
       x="49.248409"
       y="113.78081"
       rx="5.6654339"
       ry="5.6654339"
       inkscape:export-filename="rect3.png"
       inkscape:export-xdpi="96"
       inkscape:export-ydpi="96" />
    <text
       xml:space="preserve"
       style="font-size:9.87777px;font-family:Arial;-inkscape-font-specification:Arial;fill:#000000;stroke-width:1.321;paint-order:fill markers stroke"
       x="54.531765"
       y="134.76128"
       id="text1"><tspan
         sodipodi:role="line"
         id="tspan1"
         style="font-style:normal;font-variant:normal;font-weight:normal;font-stretch:normal;font-size:9.87777px;font-family:Bahnschrift;-inkscape-font-specification:'Bahnschrift, Normal';font-variant-ligatures:normal;font-variant-caps:normal;font-variant-numeric:normal;font-variant-east-asian:normal;stroke-width:1.321"
         x="54.531765"
         y="134.76128">Моє портфоліо</tspan></text>
    <g
       id="g3"
       transform="matrix(0.30256407,0,0,0.28302097,103.25378,92.647124)"
       style="stroke-width:3.41729">
      <rect
         style="fill:#000000;stroke-width:4.51424;paint-order:fill markers stroke"
         id="rect1"
         width="73.589577"
         height="43.021599"
         x="72.834808"
         y="126.98919"
         rx="5.6654339"
         ry="9.4979324" />
      <path
         d="m 93.595382,110.00681 c -0.19616,0 -0.38992,0.0102 -0.58084,0.0295 -0.19092,0.0193 -0.37906,0.0477 -0.56379,0.0853 -0.18474,0.0376 -0.36602,0.0845 -0.54364,0.13953 -0.17761,0.055 -0.35133,0.11817 -0.5209,0.18965 -0.16956,0.0715 -0.335,0.15121 -0.49557,0.23823 -0.16058,0.087 -0.3165,0.18157 -0.46716,0.28318 -0.15065,0.10162 -0.29583,0.21029 -0.43563,0.32557 -0.1398,0.11527 -0.27404,0.23683 -0.40204,0.36483 -0.12801,0.128 -0.25008,0.26225 -0.36535,0.40204 -0.11528,0.1398 -0.22395,0.2855 -0.32557,0.43615 -0.10161,0.15066 -0.19617,0.30658 -0.28318,0.46716 -0.087,0.16057 -0.16623,0.32549 -0.23771,0.49506 -0.0715,0.16956 -0.13516,0.34328 -0.19017,0.5209 -0.055,0.17761 -0.1014,0.35941 -0.13901,0.54415 -0.0376,0.18473 -0.0665,0.37287 -0.0858,0.56379 -0.0193,0.19092 -0.0289,0.38468 -0.0289,0.58084 v 37.35121 c 0,0.19616 0.01,0.38992 0.0289,0.58084 0.0193,0.19092 0.0482,0.37905 0.0858,0.56379 0.0376,0.18473 0.084,0.36602 0.13901,0.54364 0.055,0.17761 0.11868,0.35133 0.19017,0.52089 0.0715,0.16957 0.15069,0.335 0.23771,0.49558 0.087,0.16058 0.18157,0.3165 0.28318,0.46716 0.10162,0.15065 0.21029,0.29635 0.32557,0.43615 0.11527,0.13979 0.23734,0.27352 0.36535,0.40152 0.128,0.128 0.26224,0.25008 0.40204,0.36535 0.1398,0.11528 0.28498,0.22395 0.43563,0.32556 0.15066,0.10162 0.30658,0.19618 0.46716,0.28319 0.16057,0.087 0.32601,0.16675 0.49557,0.23823 0.16957,0.0715 0.34329,0.13464 0.5209,0.18965 0.17762,0.055 0.3589,0.1014 0.54364,0.13901 0.18473,0.0376 0.37287,0.0665 0.56379,0.0858 0.19092,0.0193 0.38468,0.0289 0.58084,0.0289 h 32.068328 c 0.19616,0 0.38992,-0.01 0.58084,-0.0289 0.19092,-0.0193 0.37854,-0.0482 0.56328,-0.0858 0.18473,-0.0376 0.36653,-0.084 0.54415,-0.13901 0.17762,-0.055 0.35133,-0.11817 0.5209,-0.18965 0.16956,-0.0715 0.335,-0.15121 0.49557,-0.23823 0.16058,-0.087 0.3165,-0.18157 0.46716,-0.28319 0.15065,-0.10161 0.29583,-0.21028 0.43563,-0.32556 0.1398,-0.11527 0.27404,-0.23735 0.40204,-0.36535 0.12801,-0.128 0.24956,-0.26173 0.36484,-0.40152 0.11527,-0.1398 0.22395,-0.2855 0.32556,-0.43615 0.10161,-0.15066 0.19617,-0.30658 0.28319,-0.46716 0.087,-0.16058 0.16674,-0.32601 0.23823,-0.49558 0.0715,-0.16956 0.13515,-0.34328 0.19017,-0.52089 0.055,-0.17762 0.10139,-0.35891 0.139,-0.54364 0.0376,-0.18474 0.066,-0.37287 0.0853,-0.56379 0.0193,-0.19092 0.0295,-0.38468 0.0295,-0.58084 v -37.35122 c 0,-0.19616 -0.0102,-0.38992 -0.0295,-0.58084 -0.0193,-0.19092 -0.0477,-0.37905 -0.0853,-0.56379 -0.0376,-0.18473 -0.084,-0.36653 -0.139,-0.54415 -0.055,-0.17762 -0.11869,-0.35134 -0.19017,-0.5209 -0.0715,-0.16956 -0.15122,-0.33448 -0.23823,-0.49506 -0.087,-0.16058 -0.18158,-0.3165 -0.28319,-0.46715 -0.10161,-0.15066 -0.21029,-0.29636 -0.32556,-0.43615 -0.11528,-0.1398 -0.23683,-0.27404 -0.36484,-0.40205 -0.128,-0.128 -0.26224,-0.24956 -0.40204,-0.36483 -0.1398,-0.11528 -0.28498,-0.22395 -0.43563,-0.32556 -0.15066,-0.10162 -0.30658,-0.19618 -0.46716,-0.28319 -0.16057,-0.087 -0.32601,-0.16675 -0.49557,-0.23823 -0.16957,-0.0715 -0.34328,-0.13464 -0.5209,-0.18965 -0.17762,-0.055 -0.35942,-0.10192 -0.54415,-0.13953 -0.18474,-0.0376 -0.37236,-0.066 -0.56328,-0.0853 -0.19092,-0.0193 -0.38468,-0.0295 -0.58084,-0.0295 z m 7.695658,9.74359 h 16.03364 c 0.0981,0 0.19497,0.006 0.29042,0.0165 0.0955,0.0109 0.18979,0.0268 0.28216,0.0481 0.18473,0.0426 0.3627,0.10565 0.53227,0.18655 0.16956,0.0809 0.33045,0.17956 0.4811,0.29456 0.15066,0.115 0.2911,0.24632 0.4191,0.39119 0.128,0.14487 0.24358,0.30336 0.3452,0.47387 0.10161,0.17051 0.18948,0.35276 0.26096,0.54467 0.0715,0.19191 0.12672,0.39347 0.16433,0.60255 0.0376,0.20908 0.0574,0.426 0.0574,0.64802 v 21.1367 c 0,0.22201 -0.0198,0.43894 -0.0574,0.64802 -0.0376,0.20908 -0.0928,0.41064 -0.16433,0.60255 -0.0715,0.19191 -0.15935,0.37416 -0.26096,0.54467 -0.10162,0.1705 -0.2172,0.329 -0.3452,0.47387 -0.128,0.14487 -0.26844,0.27567 -0.4191,0.39067 -0.15065,0.11501 -0.31154,0.21417 -0.4811,0.29507 -0.16957,0.0809 -0.34754,0.14399 -0.53227,0.18656 -0.0924,0.0213 -0.1867,0.0371 -0.28216,0.0481 -0.0954,0.0109 -0.19233,0.0165 -0.29042,0.0165 h -16.03364 c -0.0981,0 -0.19497,-0.006 -0.29042,-0.0165 -0.0955,-0.0109 -0.18979,-0.0268 -0.28216,-0.0481 -0.18473,-0.0426 -0.3627,-0.10565 -0.53227,-0.18656 -0.16956,-0.0809 -0.330449,-0.18006 -0.481098,-0.29507 -0.15066,-0.115 -0.2911,-0.2458 -0.4191,-0.39067 -0.128,-0.14487 -0.24358,-0.30337 -0.3452,-0.47387 -0.10161,-0.17051 -0.18948,-0.35276 -0.26096,-0.54467 -0.0715,-0.19191 -0.12672,-0.39347 -0.16433,-0.60255 -0.0376,-0.20908 -0.0574,-0.42601 -0.0574,-0.64802 v -21.1367 c 0,-0.22202 0.0198,-0.43894 0.0574,-0.64802 0.0376,-0.20908 0.0928,-0.41064 0.16433,-0.60255 0.0715,-0.19191 0.15935,-0.37416 0.26096,-0.54467 0.10162,-0.17051 0.2172,-0.329 0.3452,-0.47387 0.128,-0.14488 0.26844,-0.27619 0.4191,-0.3912 0.150649,-0.115 0.311538,-0.21365 0.481098,-0.29455 0.16957,-0.0809 0.34754,-0.14399 0.53227,-0.18655 0.0924,-0.0213 0.1867,-0.0371 0.28216,-0.0481 0.0954,-0.0109 0.19233,-0.0165 0.29042,-0.0165 z"
         style="stroke-width:4.51424;paint-order:fill markers stroke"
         id="path2" />
      <rect
         style="fill:#ffffff;stroke-width:4.51424;paint-order:fill markers stroke"
         id="rect2"
         width="67.928848"
         height="3.0190589"
         x="75.287804"
         y="145.29199"
         rx="3.8193936"
         ry="1.0071881" />
      <path
         d="m 89.153832,138.40487 c -0.0848,0 -0.16749,0.006 -0.24731,0.0177 -0.0798,0.0116 -0.15672,0.0289 -0.22998,0.0509 -0.0733,0.0221 -0.14299,0.0491 -0.20809,0.0804 -0.0651,0.0314 -0.12555,0.0671 -0.18086,0.1066 -0.0553,0.0395 -0.10536,0.0829 -0.14926,0.12943 -0.0439,0.0465 -0.0818,0.0962 -0.11271,0.14858 -0.0154,0.0262 -0.029,0.053 -0.0409,0.0804 -0.0119,0.0274 -0.022,0.0556 -0.0301,0.0841 -0.008,0.0285 -0.0143,0.0575 -0.0185,0.087 -0.004,0.0295 -0.006,0.0594 -0.006,0.0897 v 14.10046 c 0,0.0303 0.002,0.0602 0.006,0.0897 0.004,0.0295 0.0104,0.0584 0.0185,0.087 0.008,0.0285 0.0182,0.0565 0.0301,0.0839 0.0119,0.0274 0.0255,0.0542 0.0409,0.0804 0.0309,0.0524 0.0688,0.10222 0.11271,0.14874 0.0439,0.0465 0.0939,0.0897 0.14926,0.12927 0.0553,0.0395 0.11576,0.0754 0.18086,0.10677 0.0651,0.0314 0.13482,0.0584 0.20809,0.0804 0.0733,0.0221 0.15016,0.0391 0.22998,0.0508 0.0798,0.0116 0.16255,0.0177 0.24731,0.0177 h 10.76005 c 0.0848,0 0.167478,-0.006 0.247308,-0.0177 0.0798,-0.0116 0.15672,-0.0287 0.22998,-0.0508 0.0733,-0.0221 0.14299,-0.049 0.20809,-0.0804 0.0651,-0.0314 0.12555,-0.0672 0.18086,-0.10677 0.0553,-0.0395 0.10536,-0.0827 0.14926,-0.12927 0.0439,-0.0465 0.0818,-0.0964 0.11271,-0.14874 0.0154,-0.0262 0.029,-0.053 0.0409,-0.0804 0.0119,-0.0274 0.022,-0.0554 0.0301,-0.0839 0.008,-0.0285 0.0143,-0.0575 0.0185,-0.087 0.004,-0.0295 0.006,-0.0594 0.006,-0.0897 v -14.10046 c 0,-0.0303 -0.002,-0.0602 -0.006,-0.0897 -0.004,-0.0295 -0.0104,-0.0584 -0.0185,-0.087 -0.008,-0.0285 -0.0182,-0.0567 -0.0301,-0.0841 -0.0119,-0.0274 -0.0255,-0.0542 -0.0409,-0.0804 -0.0309,-0.0524 -0.0688,-0.10205 -0.11271,-0.14858 -0.0439,-0.0465 -0.0939,-0.0899 -0.14926,-0.12943 -0.0553,-0.0395 -0.11576,-0.0752 -0.18086,-0.1066 -0.0651,-0.0314 -0.13482,-0.0584 -0.20809,-0.0804 -0.0733,-0.0221 -0.15016,-0.0393 -0.22998,-0.0509 -0.0798,-0.0116 -0.162548,-0.0177 -0.247308,-0.0177 z m 2.49877,3.11869 h 5.54985 c 0.0438,0 0.0864,0.004 0.12756,0.0107 0.0412,0.007 0.0808,0.0173 0.1186,0.0307 0.0378,0.0133 0.0738,0.0296 0.10738,0.0485 0.0336,0.0189 0.0648,0.0405 0.0933,0.0643 0.0285,0.0238 0.0544,0.0498 0.0771,0.0779 0.0227,0.0281 0.0421,0.0581 0.058,0.0897 0.0159,0.0316 0.0282,0.0647 0.0366,0.0991 0.008,0.0344 0.0127,0.0701 0.0127,0.10661 v 8.50178 c 0,0.0365 -0.004,0.072 -0.0127,0.10644 -0.008,0.0344 -0.0206,0.0675 -0.0366,0.0991 -0.0159,0.0316 -0.0354,0.0616 -0.058,0.0897 -0.0227,0.0281 -0.0486,0.0542 -0.0771,0.078 -0.0285,0.0238 -0.0597,0.0454 -0.0933,0.0643 -0.0336,0.0189 -0.0696,0.0352 -0.10738,0.0485 -0.0378,0.0133 -0.0774,0.0236 -0.1186,0.0307 -0.0412,0.007 -0.0838,0.0107 -0.12756,0.0107 h -5.54985 c -0.0438,0 -0.0864,-0.004 -0.12756,-0.0107 -0.0411,-0.007 -0.0808,-0.0173 -0.1186,-0.0307 -0.0378,-0.0133 -0.0738,-0.0296 -0.10738,-0.0485 -0.0336,-0.0189 -0.0648,-0.0405 -0.0933,-0.0643 -0.0285,-0.0238 -0.0544,-0.05 -0.0771,-0.078 -0.0227,-0.0281 -0.0421,-0.0581 -0.0581,-0.0897 -0.0159,-0.0316 -0.0282,-0.0647 -0.0366,-0.0991 -0.008,-0.0344 -0.0127,-0.0699 -0.0127,-0.10644 v -8.50178 c 0,-0.0365 0.004,-0.0722 0.0127,-0.10661 0.008,-0.0344 0.0206,-0.0675 0.0366,-0.0991 0.0159,-0.0316 0.0354,-0.0616 0.0581,-0.0897 0.0226,-0.0281 0.0486,-0.0541 0.0771,-0.0779 0.0285,-0.0238 0.0597,-0.0454 0.0933,-0.0643 0.0336,-0.0189 0.0696,-0.0352 0.10738,-0.0485 0.0378,-0.0133 0.0774,-0.0236 0.1186,-0.0307 0.0412,-0.007 0.0838,-0.0107 0.12756,-0.0107 z"
         style="fill:#ffffff;stroke-width:4.51424;paint-order:fill markers stroke"
         id="path3" />
      <path
         d="m 119.34532,138.40487 c -0.0848,0 -0.16749,0.006 -0.24731,0.0177 -0.0798,0.0116 -0.15672,0.0289 -0.22998,0.0509 -0.0733,0.0221 -0.14299,0.0491 -0.20809,0.0804 -0.0651,0.0314 -0.12555,0.0671 -0.18086,0.1066 -0.0553,0.0395 -0.10536,0.0829 -0.14926,0.12943 -0.0439,0.0465 -0.0818,0.0962 -0.11271,0.14858 -0.0154,0.0262 -0.029,0.053 -0.0409,0.0804 -0.0119,0.0274 -0.022,0.0556 -0.0301,0.0841 -0.008,0.0285 -0.0143,0.0575 -0.0185,0.087 -0.004,0.0295 -0.006,0.0594 -0.006,0.0897 v 14.10045 c 0,0.0303 0.002,0.0602 0.006,0.0897 0.004,0.0295 0.0104,0.0584 0.0185,0.087 0.008,0.0285 0.0182,0.0565 0.0301,0.0839 0.0119,0.0274 0.0255,0.0542 0.0409,0.0804 0.0309,0.0524 0.0688,0.10222 0.11271,0.14874 0.0439,0.0465 0.094,0.0897 0.14926,0.12927 0.0553,0.0395 0.11576,0.0754 0.18086,0.10677 0.0651,0.0314 0.13482,0.0584 0.20809,0.0804 0.0733,0.0221 0.15016,0.0391 0.22998,0.0508 0.0798,0.0116 0.16255,0.0177 0.24731,0.0177 h 10.76005 c 0.0848,0 0.16748,-0.006 0.2473,-0.0177 0.0798,-0.0116 0.15672,-0.0287 0.22999,-0.0508 0.0733,-0.0221 0.14299,-0.049 0.20809,-0.0804 0.0651,-0.0314 0.12555,-0.0672 0.18086,-0.10677 0.0553,-0.0395 0.10535,-0.0827 0.14926,-0.12927 0.0439,-0.0465 0.0818,-0.0964 0.1127,-0.14874 0.0154,-0.0262 0.029,-0.053 0.0409,-0.0804 0.0119,-0.0274 0.022,-0.0554 0.0301,-0.0839 0.008,-0.0285 0.0143,-0.0575 0.0185,-0.087 0.004,-0.0295 0.006,-0.0594 0.006,-0.0897 v -14.10045 c 0,-0.0303 -0.002,-0.0602 -0.006,-0.0897 -0.004,-0.0295 -0.0104,-0.0584 -0.0185,-0.087 -0.008,-0.0285 -0.0182,-0.0567 -0.0301,-0.0841 -0.0119,-0.0274 -0.0255,-0.0542 -0.0409,-0.0804 -0.0309,-0.0524 -0.0688,-0.10205 -0.1127,-0.14858 -0.0439,-0.0465 -0.094,-0.0899 -0.14926,-0.12943 -0.0553,-0.0395 -0.11576,-0.0752 -0.18086,-0.1066 -0.0651,-0.0314 -0.13482,-0.0584 -0.20809,-0.0804 -0.0733,-0.0221 -0.15016,-0.0393 -0.22999,-0.0509 -0.0798,-0.0116 -0.16254,-0.0177 -0.2473,-0.0177 z m 2.49877,3.11868 h 5.54984 c 0.0438,0 0.0864,0.004 0.12756,0.0107 0.0412,0.007 0.0808,0.0173 0.11861,0.0307 0.0378,0.0133 0.0738,0.0296 0.10738,0.0485 0.0335,0.0189 0.0648,0.0405 0.0933,0.0643 0.0286,0.0238 0.0544,0.0498 0.0771,0.0779 0.0227,0.0281 0.0421,0.0581 0.058,0.0897 0.0159,0.0316 0.0282,0.0647 0.0366,0.0991 0.008,0.0344 0.0127,0.0701 0.0127,0.10661 v 8.50178 c 0,0.0365 -0.004,0.072 -0.0127,0.10644 -0.008,0.0344 -0.0206,0.0675 -0.0366,0.0991 -0.0159,0.0316 -0.0354,0.0616 -0.058,0.0897 -0.0227,0.0281 -0.0486,0.0542 -0.0771,0.078 -0.0285,0.0238 -0.0597,0.0454 -0.0933,0.0643 -0.0336,0.0189 -0.0696,0.0352 -0.10738,0.0485 -0.0378,0.0133 -0.0774,0.0236 -0.11861,0.0307 -0.0412,0.007 -0.0838,0.0107 -0.12756,0.0107 h -5.54984 c -0.0438,0 -0.0864,-0.004 -0.12756,-0.0107 -0.0411,-0.007 -0.0808,-0.0173 -0.1186,-0.0307 -0.0378,-0.0133 -0.0738,-0.0296 -0.10738,-0.0485 -0.0336,-0.0189 -0.0648,-0.0405 -0.0933,-0.0643 -0.0285,-0.0238 -0.0544,-0.05 -0.0771,-0.078 -0.0227,-0.0281 -0.0421,-0.0581 -0.0581,-0.0897 -0.0159,-0.0316 -0.0282,-0.0647 -0.0366,-0.0991 -0.008,-0.0344 -0.0127,-0.0699 -0.0127,-0.10644 v -8.50178 c 0,-0.0365 0.004,-0.0722 0.0127,-0.10661 0.008,-0.0344 0.0206,-0.0675 0.0366,-0.0991 0.0159,-0.0316 0.0354,-0.0616 0.0581,-0.0897 0.0226,-0.0281 0.0486,-0.0541 0.0771,-0.0779 0.0285,-0.0238 0.0597,-0.0454 0.0933,-0.0643 0.0336,-0.0189 0.0696,-0.0352 0.10738,-0.0485 0.0378,-0.0133 0.0774,-0.0236 0.1186,-0.0307 0.0412,-0.007 0.0838,-0.0107 0.12756,-0.0107 z"
         style="fill:#ffffff;stroke-width:4.51424;paint-order:fill markers stroke"
         id="path3-9" />
    </g>
  </g>
</svg>
